<?xml version="1.0" standalone="no"?>
<!DOCTYPE svg PUBLIC "-//W3C//DTD SVG 20010904//EN"
 "http://www.w3.org/TR/2001/REC-SVG-20010904/DTD/svg10.dtd">
<svg version="1.0" xmlns="http://www.w3.org/2000/svg"
 width="454.000000pt" height="340.000000pt" viewBox="0 0 454.000000 340.000000"
 preserveAspectRatio="xMidYMid meet">

<g transform="translate(0.000000,340.000000) scale(0.100000,-0.100000)"
fill="#000000" stroke="none">
<path d="M2629 2306 c-2 -9 -64 -53 -138 -99 -85 -52 -137 -91 -142 -106 l-9
-23 38 23 c153 92 272 172 272 182 0 7 -4 18 -9 26 -7 11 -10 11 -12 -3z"/>
<path d="M2026 1983 l250 -125 102 51 c56 28 102 53 102 55 0 11 -95 -16 -147
-42 -34 -18 -72 -32 -83 -32 -11 0 -119 50 -240 110 -121 61 -223 110 -227
109 -5 0 105 -57 243 -126z"/>
<path d="M1783 2000 c0 -36 2 -50 4 -32 2 17 2 47 0 65 -2 17 -4 3 -4 -33z"/>
<path d="M2262 1449 l-2 -366 -31 -7 c-19 -3 -41 0 -59 9 -16 8 -33 15 -37 14
-4 0 24 -16 62 -35 l70 -34 3 195 c1 107 1 284 -1 393 -1 113 -3 40 -5 -169z"/>
<path d="M2514 1560 c0 -85 2 -120 3 -77 2 42 2 112 0 155 -1 42 -3 7 -3 -78z"/>
<path d="M1782 1483 c1 -37 1 -37 5 -5 2 17 6 32 9 32 2 0 49 -23 104 -50 55
-28 100 -48 100 -45 0 6 -197 105 -210 105 -5 0 -9 -17 -8 -37z"/>
<path d="M2928 1443 l-3 -58 -283 -146 c-179 -92 -295 -158 -315 -179 -26 -27
27 -3 290 131 l323 164 0 73 c0 86 -8 96 -12 15z"/>
<path d="M1770 1360 c0 -34 -4 -42 -25 -50 -21 -8 -36 -5 -76 16 -28 14 -53
24 -55 22 -2 -2 35 -23 81 -46 l85 -42 0 70 c0 39 -2 70 -5 70 -3 0 -5 -18 -5
-40z"/>
<path d="M2080 1115 c14 -8 30 -14 35 -14 6 0 -1 6 -15 14 -14 8 -29 14 -35
14 -5 0 1 -6 15 -14z"/>
</g>
</svg>
